<?xml version="1.0" encoding="utf-8"?>
<!-- Generator: Adobe Illustrator 16.0.0, SVG Export Plug-In . SVG Version: 6.00 Build 0)  -->
<!DOCTYPE svg PUBLIC "-//W3C//DTD SVG 1.1//EN" "http://www.w3.org/Graphics/SVG/1.1/DTD/svg11.dtd">
<svg version="1.1" id="Layer_1" xmlns="http://www.w3.org/2000/svg" xmlns:xlink="http://www.w3.org/1999/xlink" x="0px" y="0px"
	 width="512px" height="512px" viewBox="0 0 512 512" enable-background="new 0 0 512 512" xml:space="preserve">
<g>
	<g>
		<g>
			<g>
				<g>
					<path fill="#4ABC96" d="M7.9,256C7.9,119,119,7.9,256,7.9C393,7.9,504.1,119,504.1,256c0,137-111.1,248.1-248.1,248.1
						C119,504.1,7.9,393,7.9,256z"/>
				</g>
			</g>
		</g>
	</g>
	<g>
		<g>
			<g>
				<defs>
					<path id="SVGID_13_" d="M446.9,168.9c0-23.5-19-42.5-42.5-42.5H119c-23.5,0-42.5,19-42.5,42.5v176.9c0,23.5,19,42.5,42.5,42.5
						h285.4c23.5,0,42.5-19,42.5-42.5V168.9z"/>
				</defs>
				<clipPath id="SVGID_2_">
					<use xlink:href="#SVGID_13_"  overflow="visible"/>
				</clipPath>
				<g clip-path="url(#SVGID_2_)">
					<path fill="#E0E4E3" d="M446.9,168.9c0-23.5-19-42.5-42.5-42.5H119c-23.5,0-42.5,19-42.5,42.5v176.9c0,23.5,19,42.5,42.5,42.5
						h285.4c23.5,0,42.5-19,42.5-42.5V168.9z"/>
					<g>
						<path fill="#D1D3D3" d="M446.6,164.2c-2.3-21.3-20.4-37.8-42.3-37.8H119c-23.5,0-42.5,19-42.5,42.5v8.6h370.2V164.2z"/>
					</g>
				</g>
				<g clip-path="url(#SVGID_2_)">
					<g>
						<path fill="#E84849" d="M119.7,151.2c0,5.1-4.2,9.3-9.3,9.3c-5.1,0-9.3-4.2-9.3-9.3c0-5.1,4.2-9.3,9.3-9.3
							C115.5,141.9,119.7,146,119.7,151.2z"/>
					</g>
					<g>
						<path fill="#EFC849" d="M154.9,151.2c0,5.1-4.2,9.3-9.3,9.3c-5.1,0-9.3-4.2-9.3-9.3c0-5.1,4.2-9.3,9.3-9.3
							C150.8,141.9,154.9,146,154.9,151.2z"/>
					</g>
					<g>
						<path fill="#37B34C" d="M190.2,151.2c0,5.1-4.2,9.3-9.3,9.3c-5.1,0-9.3-4.2-9.3-9.3c0-5.1,4.2-9.3,9.3-9.3
							C186,141.9,190.2,146,190.2,151.2z"/>
					</g>
				</g>
			</g>
		</g>
		<g>
			<g>
				<path fill="#DDA027" d="M373.3,349.9c0.5,7.8-1,14.3-5.4,14.7c-4.4,0.4-27.5-23.5-34.4-22.9c-6.9,0.6-24,29.9-29.8,28.7
					c-5.8-1.3-6.7-5.7-7.2-13.5l4.5-85.5c-0.5-7.8,5.8-14.7,14.2-15.5l26.4-2.4c8.3-0.7,15.5,5,16,12.7L373.3,349.9z"/>
			</g>
			<g>
				<path fill="#DA9027" d="M360.4,346.3c0.1,7.8-7,18.1-11.4,18.5c-4.4,0.3-20.9-28-27.8-27.5c-6.9,0.5-25.4,29.6-31.1,28.2
					c-5.7-1.4-6.4-5.9-6.5-13.7l9-85.8c-0.1-7.8,6.6-14.7,14.9-15.2l26.4-1.9c8.3-0.6,15.2,5.3,15.3,13.1L360.4,346.3z"/>
			</g>
			<g>
				<path fill="#DEBA24" d="M354.8,351.2c-0.4,7.8-2.6,14.1-7,14.1c-4.4-0.1-24.5-26.3-31.4-26.4c-6.9-0.1-27.3,27.4-32.8,25.6
					c-5.6-1.8-6-6.4-5.6-14.2l14.5-84.8c0.4-7.8,7.5-14.1,15.8-14l26.5,0.3c8.3,0.1,14.8,6.5,14.4,14.4L354.8,351.2z"/>
			</g>
			<g>
				<path fill="#CC3432" d="M380.2,251.3c0,9.5-7.7,17.2-17.2,17.2h-71.8c-9.5,0-17.2-7.7-17.2-17.2v-71.8c0-9.5,7.7-17.2,17.2-17.2
					H363c9.5,0,17.2,7.7,17.2,17.2V251.3z"/>
			</g>
			<g>
				<path fill="#CC3432" d="M339.3,278.4c-6.7,6.7-17.6,6.7-24.4,0l-50.8-50.8c-6.7-6.7-6.7-17.6,0-24.4l50.8-50.8
					c6.7-6.7,17.6-6.7,24.4,0l50.8,50.8c6.7,6.7,6.7,17.6,0,24.4L339.3,278.4z"/>
			</g>
			<g>
				<path fill="#DDA027" d="M279.7,215.4c0-26.2,21.2-47.4,47.4-47.4s47.4,21.2,47.4,47.4c0,26.2-21.2,47.4-47.4,47.4
					S279.7,241.6,279.7,215.4z"/>
			</g>
			<g>
				<path fill="#DEBA24" d="M289.8,215.4c0-20.6,16.7-37.3,37.3-37.3c20.6,0,37.3,16.7,37.3,37.3c0,20.6-16.7,37.3-37.3,37.3
					C306.5,252.8,289.8,236.1,289.8,215.4z"/>
			</g>
		</g>
	</g>
</g>
</svg>
