<?xml version="1.0" encoding="utf-8"?>
<!-- Generator: Adobe Illustrator 16.0.0, SVG Export Plug-In . SVG Version: 6.00 Build 0)  -->
<!DOCTYPE svg PUBLIC "-//W3C//DTD SVG 1.1//EN" "http://www.w3.org/Graphics/SVG/1.1/DTD/svg11.dtd">
<svg version="1.1" id="Layer_1" xmlns="http://www.w3.org/2000/svg" xmlns:xlink="http://www.w3.org/1999/xlink" x="0px" y="0px"
	 width="512px" height="512px" viewBox="0 0 512 512" enable-background="new 0 0 512 512" xml:space="preserve">
<g>
	<g>
		<g>
			<g>
				<path fill="#EB9682" d="M7.9,256C7.9,119,119,7.9,256,7.9C393,7.9,504.1,119,504.1,256c0,137-111.1,248.1-248.1,248.1
					C119,504.1,7.9,393,7.9,256z"/>
			</g>
		</g>
	</g>
	<g>
		<path fill="#B03738" d="M175.4,414.7c0,8.3-6.7,15-15,15h-13.8c-8.3,0-15-6.7-15-15V97.3c0-8.3,6.7-15,15-15h13.8
			c8.3,0,15,6.7,15,15V414.7z"/>
		<path fill="#E84849" stroke="#FFFFFF" stroke-width="3" d="M119.6,147.8c0-18.4,14.9-33.2,33.2-33.2c18.3,0,33.2,14.9,33.2,33.2
			s-14.9,33.2-33.2,33.2C134.5,181.1,119.6,166.2,119.6,147.8z"/>
		<path fill="#B03738" d="M278.5,414.7c0,8.3-6.7,15-15,15h-13.8c-8.3,0-15-6.7-15-15V97.3c0-8.3,6.7-15,15-15h13.8
			c8.3,0,15,6.7,15,15V414.7z"/>
		<path fill="#E84849" stroke="#FFFFFF" stroke-width="3" d="M222.8,354.1c0-18.3,14.9-33.2,33.2-33.2s33.2,14.9,33.2,33.2
			c0,18.4-14.9,33.2-33.2,33.2S222.8,372.4,222.8,354.1z"/>
		<path fill="#B03738" d="M381.6,414.7c0,8.3-6.7,15-15,15h-13.8c-8.3,0-15-6.7-15-15V97.3c0-8.3,6.7-15,15-15h13.8
			c8.3,0,15,6.7,15,15V414.7z"/>
		<path fill="#E84849" stroke="#FFFFFF" stroke-width="3" d="M325.9,216.6c0-18.4,14.9-33.2,33.2-33.2s33.2,14.9,33.2,33.2
			s-14.9,33.2-33.2,33.2S325.9,234.9,325.9,216.6z"/>
	</g>
</g>
</svg>
