<?xml version="1.0" encoding="utf-8"?>
<!-- Generator: Adobe Illustrator 16.0.0, SVG Export Plug-In . SVG Version: 6.00 Build 0)  -->
<!DOCTYPE svg PUBLIC "-//W3C//DTD SVG 1.1//EN" "http://www.w3.org/Graphics/SVG/1.1/DTD/svg11.dtd">
<svg version="1.1" id="Layer_1" xmlns="http://www.w3.org/2000/svg" xmlns:xlink="http://www.w3.org/1999/xlink" x="0px" y="0px"
	 width="512px" height="512px" viewBox="0 0 512 512" enable-background="new 0 0 512 512" xml:space="preserve">
<g>
	<g>
		<g>
			<path fill="#334D5C" d="M256,7.9C119,7.9,7.9,119,7.9,256C7.9,393,119,504.1,256,504.1c137,0,248.1-111.1,248.1-248.1
				C504.1,119,393,7.9,256,7.9z"/>
		</g>
	</g>
	<g>
		<g>
			<g>
				<path fill="#A5A5A5" d="M220.5,424.7c-8-5.9-21.8-0.6-30.9,11.7s-15.6,20.4-7.6,26.3c8,5.9,32.3,0.1,41.4-12.3
					C232.5,438.1,228.5,430.6,220.5,424.7z"/>
			</g>
		</g>
		<g>
			<g>
				<path fill="#A5A5A5" d="M322.1,436.4c-9.1-12.3-23-17.6-30.9-11.7c-7.9,5.9-12,13.4-2.9,25.7c9.1,12.3,33.5,18.2,41.4,12.3
					C337.7,456.8,331.2,448.8,322.1,436.4z"/>
			</g>
		</g>
		<g>
			<g>
				<path fill="#D6E2D3" d="M319.5,356.1l-6.7-79H198.9l-6.9,80.8c0,0-2,78.9,2.1,81.3c4.1,2.4,23.8,2.3,29.2-0.6
					c5.3-2.9,21-81.6,21-81.6l7-35.6c0,0,1.1-10.5,4.9-10.5c3.9,0,4.7,10.3,4.7,10.3l6.3,34.7c0,0,14.6,79.7,20.3,82.7
					c5.6,2.9,28.3,3.1,31.8-0.6C322.8,434.4,319.5,356.1,319.5,356.1z"/>
			</g>
		</g>
		<g>
			<g>
				<g>
					<g>
						<g>
							<path fill="#818281" d="M350.5,300.1l-0.9,18.7c0,0-0.3,2.7-1.7,3.3c0,0,2.4-0.2,2.8-3.6l0.8-18.9L350.5,300.1z"/>
						</g>
					</g>
					<g>
						<g>
							<path fill="#818281" d="M346.4,297.3l-6.1,17.8c0,0-0.8,2.9-2.5,3.1c0,0,2.4,0.4,4.1-2.6l6.2-17.7L346.4,297.3z"/>
						</g>
					</g>
					<g>
						<g>
							<path fill="#A5A5A5" d="M365.4,308.1c0,0-2.2-9.7-2.7-11.6l-0.6-11.6c0,0-9-1.8-18.7-5c0,0-4.4,6.5-5.5,7.1
								c-1.1,0.6-3.5,5.3-7.7,10.5l0,0c-2.4,1.7-5.1,4-4.6,5.6c0,0,1,2.8,4.8,3.3c0,0,1.2,0.4,2.4-0.6l3.6-3.1l2.6-4l-4.6,11.1
								l-2.2,3.9c-0.5,1.2,0.2,2,0.2,2c1.5,2.1,5.5,2.5,5.5,2.5c3.5-0.3,7.2-14.9,7.2-14.9s0.6-1.7,1.3-3.7l-0.2,1.5l-5.2,17.6
								c-0.2,1.1,0.7,2,0.7,2c1.9,1.9,5.9,1.6,5.9,1.6c3-0.7,2.7-10.3,2.7-10.3s0.2-7.6,0.8-11.9l-0.2,8.4l-0.3,9.8c0.1,1.3,1,2,1,2
								c2.2,1.7,5.7,0.9,5.7,0.9c1.4-0.5,1.8-2.7,1.8-5c0.2,1,1.2,1.9,1.2,1.9c2.4,1.5,5.2,0.6,5.2,0.6
								C368.3,317.2,365.4,308.1,365.4,308.1z M358.8,311.6L358.8,311.6L358.8,311.6C358.8,311.6,358.8,311.6,358.8,311.6z"/>
						</g>
					</g>
					<g>
						<g>
							<path fill="#818281" d="M357.5,299.7l1.4,17.9c0,0-0.1,2.8-1.5,3.4c0,0,2.3-0.2,2.5-3.7L357.5,299.7z"/>
						</g>
					</g>
				</g>
				<g>
					<g>
						<path fill="#BDC1BC" d="M332.5,283.1l2.1,3.7l28.4-1.6l0.8-4.7C363.8,280.5,340.1,277.9,332.5,283.1z"/>
					</g>
				</g>
			</g>
			<g>
				<g>
					<g>
						<g>
							<path fill="#818281" d="M162.5,318.8l-0.9-18.7l-1-0.4l0.8,18.9c0.4,3.4,2.8,3.6,2.8,3.6
								C162.8,321.5,162.5,318.8,162.5,318.8z"/>
						</g>
					</g>
					<g>
						<g>
							<path fill="#818281" d="M171.7,315.1l-6.1-17.8l-1.7,0.5l6.2,17.7c1.7,3,4.1,2.6,4.1,2.6
								C172.5,317.9,171.7,315.1,171.7,315.1z"/>
						</g>
					</g>
					<g>
						<g>
							<path fill="#A5A5A5" d="M181.8,297.5L181.8,297.5c-4.2-5.2-6.6-9.9-7.7-10.5c-1.1-0.6-5.5-7.1-5.5-7.1
								c-9.6,3.2-18.7,5-18.7,5l-0.6,11.6c-0.5,1.9-2.7,11.6-2.7,11.6s-2.9,9.1-0.1,10.5c0,0,2.8,1,5.2-0.6c0,0,1.1-0.8,1.2-1.9
								c0.1,2.3,0.5,4.5,1.8,5c0,0,3.5,0.8,5.7-0.9c0,0,0.9-0.6,1-2l-0.3-9.8L161,300c0.5,4.3,0.8,11.9,0.8,11.9s-0.4,9.6,2.7,10.3
								c0,0,3.9,0.3,5.9-1.6c0,0,0.9-0.9,0.7-2l-5.2-17.6l-0.2-1.5c0.7,2.1,1.3,3.7,1.3,3.7s3.7,14.6,7.2,14.9c0,0,4-0.4,5.5-2.5
								c0,0,0.7-0.9,0.2-2l-2.2-3.9l-4.6-11.1l2.6,4l3.6,3.1c1.2,1,2.4,0.6,2.4,0.6c3.8-0.5,4.8-3.3,4.8-3.3
								C187,301.5,184.3,299.2,181.8,297.5z M153.2,311.7L153.2,311.7L153.2,311.7C153.2,311.6,153.2,311.6,153.2,311.7z"/>
						</g>
					</g>
					<g>
						<g>
							<path fill="#818281" d="M153.1,317.6l1.4-17.9l-2.4,17.6c0.2,3.5,2.5,3.7,2.5,3.7C153.3,320.4,153.1,317.6,153.1,317.6z"/>
						</g>
					</g>
				</g>
				<g>
					<g>
						<path fill="#BDC1BC" d="M148.2,280.5l0.8,4.7l28.4,1.6l2.1-3.7C171.9,277.9,148.2,280.5,148.2,280.5z"/>
					</g>
				</g>
			</g>
		</g>
		<g>
			<g>
				<g>
					<path fill="#AFB2AD" d="M306,57.2h-99.7c-8.2,0-14.8,6-14.8,13.4V161c0,7.4,6.6,13.4,14.8,13.4H306c8.2,0,14.8-6,14.8-13.4
						V70.6C320.8,63.2,314.2,57.2,306,57.2z"/>
				</g>
			</g>
			<g>
				<g>
					<path fill="#C0C9BD" d="M306,62.1h-99.7c-8.2,0-14.8,6.6-14.8,14.8v99.7c0,8.2,6.6,14.8,14.8,14.8H306
						c8.2,0,14.8-6.6,14.8-14.8V76.9C320.8,68.7,314.2,62.1,306,62.1z"/>
				</g>
			</g>
			<g>
				<g>
					<path fill="#DFEADC" d="M331.3,146.5c-3.1-19.5-40.8-30.4-72.7-30.4h-4.8c-31.9,0-70.5,12.1-72.7,30.4
						c-1.6,13.8,0.1,51,1.1,68.5c19.9,17,45.8,27.3,74,27.3c28.3,0,54.2-10.3,74.1-27.4C331.5,197.6,333.6,161.1,331.3,146.5z"/>
				</g>
			</g>
			<g>
				<g>
					<path fill="#DFEADC" d="M337.3,146.5c-3.1-19.5-46.9-30.4-78.8-30.4h-4.8c-31.9,0-76.8,12.1-79,30.4
						c-1.7,13.8,23.4,113.2,24.1,130.7c0,0,26.9,8.7,54.5,8.7c27.6,0,60.1-8.8,60.1-8.8C314.3,259.8,339.6,161.1,337.3,146.5z"/>
				</g>
			</g>
			<g>
				<g>
					<g>
						<path fill="#D6E2D3" d="M256.2,45.9c-27.4,0-49.6,18.2-49.6,43.5c0,40.3,22.2,51.8,49.6,51.8c27.4,0,49.6-11.5,49.6-51.8
							C305.8,64.1,283.6,45.9,256.2,45.9z"/>
					</g>
				</g>
				<g>
					<g>
						<path fill="#E5EAE4" d="M256.2,45.9c-27.4,0-49.6,18.2-49.6,43.5c0,19,4.9,31.6,13,39.6l73.2-69.4
							C283.7,51,270.7,45.9,256.2,45.9z"/>
					</g>
				</g>
				<g>
					<g>
						<path fill="#9B9A8C" d="M256.2,62.1c-21.6,0-39.1,12.8-39.1,32.7c0,34.9,17.5,43.2,39.1,43.2c21.6,0,39.1-8.3,39.1-43.2
							C295.3,74.9,277.8,62.1,256.2,62.1z"/>
					</g>
				</g>
				<g>
					<g>
						<path fill="#8E8D85" d="M281.5,69.2L225,125.7c7.1,9.4,18.4,12.3,31.1,12.3c21.6,0,39.1-8.3,39.1-43.2
							C295.3,83.8,289.9,74.9,281.5,69.2z"/>
					</g>
				</g>
			</g>
			<g>
				<g>
					<path fill="#B8BCB7" d="M217.6,171.5l-19,51.2l-6.3,19.3c0.5,0.2,6.7-12.6,9.8-18.2C208.3,209,222.5,176.7,217.6,171.5z"/>
				</g>
			</g>
			<g>
				<g>
					<path fill="#B8BCB7" d="M313.7,222.7l-19-51.2c-4.9,5.3,9.3,37.5,15.4,52.3c3.2,5.6,9.4,18.4,9.8,18.2L313.7,222.7z"/>
				</g>
			</g>
		</g>
		<g>
			<g>
				<path fill="#DFEADC" d="M363.8,250.3c-6.3-67.4-27.4-107.5-27.4-107.5l-40.2,31.8c0,0,3.8,11.7,12.6,38.2
					c3.9,11.6,15.5,38.3,18.3,46.4c1.3,3.7,5.4,23.9,5.4,23.9s10.3-2.6,19.7-1.9c9.1,0.7,11.6,0.3,11.6,0.3
					C365.8,267.1,363.8,250.3,363.8,250.3z"/>
			</g>
		</g>
		<g>
			<g>
				<path fill="#DFEADC" d="M176.1,142.9c0,0-21.6,40.4-27.9,107.8c0,0-2.1,15.8,0,30.2c0,0,2.3-0.2,11.4-0.9c9.3-0.7,20,3.2,20,3.2
					s4-19.8,5.3-23.5c2.8-8.1,14.9-35.2,18.8-46.8c8.8-26.5,12.6-38.2,12.6-38.2L176.1,142.9z"/>
			</g>
		</g>
	</g>
</g>
</svg>
