<?xml version="1.0" encoding="utf-8"?>
<!-- Generator: Adobe Illustrator 16.0.0, SVG Export Plug-In . SVG Version: 6.00 Build 0)  -->
<!DOCTYPE svg PUBLIC "-//W3C//DTD SVG 1.1//EN" "http://www.w3.org/Graphics/SVG/1.1/DTD/svg11.dtd">
<svg version="1.1" id="Layer_1" xmlns="http://www.w3.org/2000/svg" xmlns:xlink="http://www.w3.org/1999/xlink" x="0px" y="0px"
	 width="512px" height="512px" viewBox="0 0 512 512" enable-background="new 0 0 512 512" xml:space="preserve">
<g>
	<g>
		<g>
			<path fill="#6EC2CB" d="M7.9,256C7.9,119,119,7.9,256,7.9C393,7.9,504.1,119,504.1,256S393,504.1,256,504.1
				C119,504.1,7.9,393,7.9,256z"/>
		</g>
	</g>
	<g>
		<g>
			<g>
				<path fill="#E9E4B1" d="M391,180.2H118.9c-20.1,0-32.8,12.7-32.8,32.8v144.9c0,20.1,12.7,32.8,32.8,32.8H391
					c20.1,0,32.8-12.7,32.8-32.8V212.9C423.8,192.8,411.2,180.2,391,180.2z M262.8,212.9C262.8,212.9,262.9,212.8,262.8,212.9
					c0,0-0.1,0.1-0.2,0.2c-0.2,0.2-0.4,0.3-0.7,0.4c-0.4,0.3-0.8,0.5-1.2,0.7c-0.2,0.1-0.5,0.2-0.7,0.3c-0.5,0.2-1,0.3-1.4,0.5
					c-0.2,0.1-0.5,0.1-0.7,0.2c-0.7,0.1-1.5,0.2-2.3,0.2c-6.7,0-12.2-5.4-12.2-12.2c0-6.7,5.4-12.2,12.2-12.2
					c6.7,0,12.2,5.4,12.2,12.2C267.7,207.1,265.8,210.6,262.8,212.9z"/>
				<path fill="#FFFFFF" d="M258.5,214.9c-0.2,0.1-0.5,0.1-0.7,0.2C258.1,215,258.3,215,258.5,214.9z"/>
				<path fill="#FFFFFF" d="M262.6,213c-0.2,0.2-0.4,0.3-0.7,0.4C262.1,213.3,262.4,213.2,262.6,213z"/>
				<path fill="#FFFFFF" d="M260.7,214.1c-0.2,0.1-0.5,0.2-0.7,0.3C260.2,214.4,260.4,214.2,260.7,214.1z"/>
				<path fill="#58595A" d="M255.6,215.3c0.8,0,1.5-0.1,2.3-0.2c0.2,0,0.5-0.1,0.7-0.2c0.5-0.1,1-0.3,1.4-0.5
					c0.2-0.1,0.5-0.2,0.7-0.3c0.4-0.2,0.8-0.4,1.2-0.7c0.2-0.1,0.5-0.3,0.7-0.4c0.1-0.1,0.1-0.1,0.2-0.2c-0.5,0.1-7,1.4-11.9-1.4
					c-5.3-3.1-7.5-8.3-7.5-8.3C243.4,209.8,248.8,215.3,255.6,215.3z"/>
				<path fill="#FFFFFF" d="M257.8,215.1c-0.7,0.1-1.5,0.2-2.3,0.2C256.3,215.3,257.1,215.2,257.8,215.1z"/>
				<path fill="#FFFFFF" d="M262.9,212.8C262.9,212.8,262.8,212.9,262.9,212.8c-0.2,0.1-0.2,0.1-0.3,0.2
					C262.7,213,262.8,212.9,262.9,212.8z"/>
				<path fill="#FFFFFF" d="M260,214.4c-0.5,0.2-1,0.3-1.4,0.5C259,214.8,259.5,214.6,260,214.4z"/>
				<path fill="#FFFFFF" d="M261.9,213.4c-0.4,0.3-0.8,0.5-1.2,0.7C261.1,213.9,261.5,213.7,261.9,213.4z"/>
			</g>
			<g>
				<defs>
					<path id="SVGID_1_" d="M402.9,359.3c0,6.2-5,11.1-11.1,11.1h-80.2c-6.1,0-11.1-5-11.1-11.1V260c0-6.1,5-11.1,11.1-11.1h80.2
						c6.2,0,11.1,5,11.1,11.1V359.3z"/>
				</defs>
				<clipPath id="SVGID_2_">
					<use xlink:href="#SVGID_1_"  overflow="visible"/>
				</clipPath>
				<path clip-path="url(#SVGID_2_)" fill="#90B9C0" d="M402.9,359.3c0,6.2-5,11.1-11.1,11.1h-80.2c-6.1,0-11.1-5-11.1-11.1V260
					c0-6.1,5-11.1,11.1-11.1h80.2c6.2,0,11.1,5,11.1,11.1V359.3z"/>
				<path clip-path="url(#SVGID_2_)" fill="#FFFFFF" d="M359.9,335.1v-6.6c9.6-4.2,16.1-15.1,17.3-28.5c1.7-0.8,3.1-3.4,3.1-6.6
					c0-3.7-1.7-6.7-3.8-6.9c-3-13.1-12.3-19.8-25.2-19.8c-12.8,0-22.3,6.7-25.3,19.8c-2.1,0.2-3.8,3.2-3.8,6.9
					c0,3.2,1.3,5.8,3.1,6.6c1.2,13.3,7.6,24.2,17.2,28.5v6.6c-29.6,0.4-35.3,3.8-35.3,25.5v16.2h88.4v-16.2
					C395.5,338.8,389.7,335.5,359.9,335.1z"/>
			</g>
			<polygon fill="#5B4F3F" points="115,251.5 115,269 268.3,269 268.3,251.5 			"/>
			<polygon fill="#5B4F3F" points="268.3,276.9 115,276.9 115,284.3 268.3,284.3 			"/>
			<g>
				<rect x="201.4" y="299.5" fill="#5B4F3F" width="67" height="12.1"/>
				<polygon fill="#5B4F3F" points="115,299.5 115,311.6 182,311.6 182,299.5 				"/>
			</g>
		</g>
		<g>
			<g>
				<g>
					<path fill="#58595A" d="M277.1,180.1c1.6-3.1,2.4-6.5,2.4-10.2c0-4.8-9.7-8.4-22.5-8.4c-12.8,0-22.5,3.6-22.5,8.4
						c0,12.4,10.1,22.5,22.5,22.5c1.2,0,2.4-0.1,3.5-0.3c0,0,1.3,0.5,2.9,1.8c1.1,1,2.3,2.7,2.3,2.7c-2.8,0.9-5.7,1.4-8.7,1.4
						c-15.9,0-28.9-13-28.9-28.9c0-9,14.5-13,28.9-13c14.4,0,28.9,4,28.9,13c0,3.9-0.8,7.6-2.2,11L277.1,180.1z"/>
					<path fill="#58595A" d="M277.1,180.1c1.6-3.1,2.4-6.5,2.4-10.2c0-4.8-9.7-8.4-22.5-8.4c-12.8,0-22.5,3.6-22.5,8.4
						c0,12.4,10.1,22.5,22.5,22.5c1.2,0,2.4-0.1,3.5-0.3c0,0,1.3,0.5,2.9,1.8c1.1,1,2.3,2.7,2.3,2.7c-2.8,0.9-5.7,1.4-8.7,1.4
						c-15.9,0-28.9-13-28.9-28.9c0-9,14.5-13,28.9-13c14.4,0,28.9,4,28.9,13c0,3.9-0.8,7.6-2.2,11L277.1,180.1z"/>
					<path fill="#58595A" d="M277.1,180.1c1.6-3.1,2.4-6.5,2.4-10.2c0-4.8-9.7-8.4-22.5-8.4c-12.8,0-22.5,3.6-22.5,8.4
						c0,12.4,10.1,22.5,22.5,22.5c1.2,0,2.4-0.1,3.5-0.3c0,0,1.3,0.5,2.9,1.8c1.1,1,2.3,2.7,2.3,2.7c-2.8,0.9-5.7,1.4-8.7,1.4
						c-15.9,0-28.9-13-28.9-28.9c0-9,14.5-13,28.9-13c14.4,0,28.9,4,28.9,13c0,3.9-0.8,7.6-2.2,11L277.1,180.1z"/>
				</g>
			</g>
			<path fill="#CE2F2E" d="M280.8,160.9c0,3.1-4.8,5.6-10.8,5.6h-25.4c-6,0-10.8-2.5-10.8-5.6l0,0c0-3.1,4.8-5.6,10.8-5.6H270
				C276,155.2,280.8,157.7,280.8,160.9L280.8,160.9z"/>
			<g>
				<path fill="#AD2728" d="M258.4,115.6c3.3,15.9,8,32.1,14.8,47.7h0.8C302.8,92,302.2,34.2,300.6,12c-12.4-2.2-25-3.6-38-3.9
					C264.4,23.8,268.1,68.2,258.4,115.6z"/>
				<path fill="#CE2F2E" d="M242.8,163.3h0.8c6.8-15.6,11.6-31.8,14.8-47.7c-9.7-47.5-6-92-4.2-107.6c-12.9,0.1-25.6,1.2-37.9,3.2
					C214.5,32.7,213.6,91,242.8,163.3z"/>
				<path fill="#CE2F2E" d="M243.5,163.3h29.7c-6.8-15.6-11.6-31.8-14.8-47.7C255.1,131.4,250.4,147.7,243.5,163.3z"/>
			</g>
		</g>
		<g>
			<path opacity="0.25" fill="#EFEFEF" d="M118.6,180.2c-20.1,0-32.8,12.7-32.8,32.8v144.9c0,20.1,12.7,32.8,32.8,32.8h225.9
				L134.1,180.2H118.6z"/>
			<path fill="#D7D7D7" d="M262.6,213c0.1-0.1,0.2-0.1,0.3-0.2c0,0-0.1,0-0.1,0C262.7,212.9,262.7,213,262.6,213z"/>
		</g>
	</g>
</g>
</svg>
