<?xml version="1.0" encoding="utf-8"?>
<!-- Generator: Adobe Illustrator 16.0.0, SVG Export Plug-In . SVG Version: 6.00 Build 0)  -->
<!DOCTYPE svg PUBLIC "-//W3C//DTD SVG 1.1//EN" "http://www.w3.org/Graphics/SVG/1.1/DTD/svg11.dtd">
<svg version="1.1" id="Layer_1" xmlns="http://www.w3.org/2000/svg" xmlns:xlink="http://www.w3.org/1999/xlink" x="0px" y="0px"
	 width="512px" height="512px" viewBox="0 0 512 512" enable-background="new 0 0 512 512" xml:space="preserve">
<g>
	<g>
		<g>
			<path fill="#6DB4BF" d="M256,7.9C119,7.9,7.9,119,7.9,256C7.9,393,119,504.1,256,504.1c137,0,248.1-111.1,248.1-248.1
				C504.1,119,393,7.9,256,7.9z"/>
		</g>
	</g>
	<g>
		<g>
			<g>
				<g>
					<path fill="#263A45" d="M349.8,222.1c0-8.9-16.7-27.1-25.7-27.1H179.8c-8.9,0-17.6,10.2-17.6,19.1v271.7
						c28.9,11.8,60.6,18.4,93.8,18.4c33.2,0,64.9-6.5,93.8-18.4L349.8,222.1z"/>
				</g>
			</g>
			<g>
				<g>
					<g>
						<g>
							<path fill="#989A9A" d="M323.4,113.5v217.6c0,7.4-6,13.3-13.3,13.3l-119,0c-0.8,0-1.5-0.1-2.2-0.2
								c1.1,6.3,6.5,11.2,13.1,11.2l119,0c7.4,0,13.3-6,13.3-13.3l0-231.5L323.4,113.5z"/>
						</g>
					</g>
					<g>
						<g>
							<path fill="#C9C9C8" d="M188.6,342V150.7l-10.9,3l0,177.3c0,6.6,4.8,12.1,11.2,13.1C188.7,343.5,188.6,342.8,188.6,342z"/>
						</g>
					</g>
					<g>
						<g>
							<path fill="#C9C9C8" d="M188.6,150.7V342c0,0.8,0.1,1.5,0.2,2.2c0.7,0.1,1.4,0.2,2.2,0.2l119,0c7.4,0,13.3-6,13.3-13.3V113.5
								L188.6,150.7z"/>
						</g>
					</g>
					<g>
						<g>
							<path fill="#989A9A" d="M314.1,79.1h-1c5.9,1.4,10.3,6.6,10.3,13v21.4l10.9-3V103C334.3,95.7,321.4,79.1,314.1,79.1z"/>
						</g>
					</g>
					<g opacity="0.2">
						<g>
							<path fill="#FFFFFF" d="M314.1,79.1h-1c5.9,1.4,10.3,6.6,10.3,13v21.4l10.9-3V103C334.3,95.7,321.4,79.1,314.1,79.1z"/>
						</g>
					</g>
					<g>
						<g>
							<path fill="#C9C9C8" d="M310.1,78.8l-119,0c-7.4,0-13.3,6-13.3,13.4v61.6l10.9-3V103c0-7.4-0.9-23.9,6.4-23.9l118,0
								C312.1,78.9,311.1,78.8,310.1,78.8z"/>
						</g>
					</g>
					<g>
						<g>
							<path fill="#C9C9C8" d="M313.1,79.1l-118,0c-7.4,0-6.4,16.5-6.4,23.9v47.7l134.8-37.2V92.1C323.4,85.8,319,80.5,313.1,79.1z"
								/>
						</g>
					</g>
					<g opacity="0.2">
						<g>
							<path fill="#FFFFFF" d="M313.1,79.1c-1-0.2-2-0.4-3-0.4l-119,0c-7.4,0-13.3,6-13.3,13.4v61.6l10.9-3l134.8-37.2V92.1
								C323.4,85.8,319,80.5,313.1,79.1z"/>
						</g>
					</g>
				</g>
				<g>
					<path fill="none" d="M314.1,79.1h-1c-1-0.2-2-0.4-3-0.4l-119,0c-7.4,0-13.3,6-13.3,13.4l0,238.9c0,6.6,4.8,12.1,11.2,13.1
						c1.1,6.3,6.5,11.1,13.1,11.1l119,0c7.4,0,13.3-6,13.3-13.3l0-239C334.3,95.7,321.4,79.1,314.1,79.1z"/>
				</g>
			</g>
			<g>
				<g>
					<path fill="#344E5D" d="M322.7,195H178.4c-8.9,0-16.2,7.2-16.2,16.2v273.7c0,0.3,0,0.6,0,0.8c17.5,7.1,35.9,12.3,55.1,15.3
						c12.6,2,25.5,3,38.7,3c13.2,0,26.1-1,38.7-3c14.9-2.3,29.4-6,43.2-10.9c0.6-1.7,0.9-3.5,0.9-5.3V211.1
						C338.9,202.2,331.6,195,322.7,195z"/>
				</g>
			</g>
			<g>
				<g>
					<g>
						<path fill="#989897" d="M304,151.9l-23.5,0c-2.2,0-3.9,1.8-3.9,3.9l0,16.1c0,2.2,1.8,3.9,3.9,3.9l23.5,0
							c2.2,0,3.9-1.8,3.9-3.9l0-16.1C307.9,153.7,306.2,151.9,304,151.9z"/>
					</g>
				</g>
				<g>
					<g>
						<path fill="#807F7F" d="M307.3,156.7l-20.7,0c-1.9,0-3.4,1.5-3.4,3.4l0,13.8c0,0.8,0.3,1.5,0.8,2.1l20.1,0
							c2.2,0,3.9-1.8,3.9-3.9l0-15.2C307.7,156.8,307.5,156.7,307.3,156.7z"/>
					</g>
				</g>
			</g>
			<g>
				<g>
					<g>
						<path fill="#989897" d="M220.5,151.9l-23.5,0c-2.2,0-3.9,1.7-3.9,3.9l0,16.1c0,2.2,1.8,3.9,3.9,3.9l23.5,0
							c2.2,0,3.9-1.7,3.9-3.9l0-16.1C224.4,153.6,222.7,151.9,220.5,151.9z"/>
					</g>
				</g>
				<g>
					<g>
						<path fill="#807F7F" d="M223.8,156.6l-20.7,0c-1.9,0-3.4,1.5-3.4,3.4l0,13.8c0,0.8,0.3,1.5,0.8,2.1l20.1,0
							c2.2,0,3.9-1.7,3.9-3.9l0-15.2C224.2,156.7,224,156.6,223.8,156.6z"/>
					</g>
				</g>
			</g>
			<g>
				<g>
					<path fill="#263A45" d="M275.7,286.8l0,32.9l13.1,0l0,21.1l-35.6,31l0-95.4l21.5,0l-26.5-30.7L222,276.4l20.9,0l0,122.7l-32-32
						l0-17.8c9.2-1.4,16.3-9.4,16.3-19c0-10.6-8.6-19.3-19.3-19.3c-10.6,0-19.3,8.6-19.3,19.3c0,8.8,5.9,16.3,14,18.5v20
						c0,1.1,0.4,2.1,1.2,2.9l39,39l0,11.3c-10.5,2.5-18.3,11.9-18.3,23.2c0,13.2,10.7,23.9,23.9,23.9c13.2,0,23.9-10.7,23.9-23.8
						c0-11.5-8.2-21.2-19.1-23.4l0-12.2l0.1-0.1l-0.1-0.1l0-26.7l42.4-37c0.9-0.8,1.4-1.9,1.4-3.1l0-22.9l11.6,0v-32.9L275.7,286.8z
						"/>
				</g>
			</g>
		</g>
	</g>
</g>
</svg>
