<?xml version="1.0" encoding="utf-8"?>
<!-- Generator: Adobe Illustrator 16.0.0, SVG Export Plug-In . SVG Version: 6.00 Build 0)  -->
<!DOCTYPE svg PUBLIC "-//W3C//DTD SVG 1.1//EN" "http://www.w3.org/Graphics/SVG/1.1/DTD/svg11.dtd">
<svg version="1.1" id="Layer_1" xmlns="http://www.w3.org/2000/svg" xmlns:xlink="http://www.w3.org/1999/xlink" x="0px" y="0px"
	 width="512px" height="512px" viewBox="0 0 512 512" enable-background="new 0 0 512 512" xml:space="preserve">
<g>
	<g>
		<g>
			<path fill="#D8DBBA" d="M256,7.9C119,7.9,7.9,119,7.9,256C7.9,393,119,504.1,256,504.1c137,0,248.1-111.1,248.1-248.1
				C504.1,119,393,7.9,256,7.9z"/>
		</g>
	</g>
	<g>
		<g>
			<g>
				<path fill="#878878" d="M335.1,329.4v-28l-26.5-8.3c-2.3-9-5.8-17.5-10.5-25.2l12.9-24.7l-19.8-19.8l-24.8,12.9
					c-7.7-4.6-16.1-8.1-25.1-10.4l-8.4-26.7h-28l-8.4,26.7c-9,2.2-17.4,5.8-25.1,10.4l-24.8-12.9l-19.8,19.8l12.9,24.7
					c-4.7,7.7-8.2,16.2-10.5,25.2l-26.5,8.3v28l26.4,8.3c2.2,9.1,5.8,17.6,10.5,25.5l-12.8,24.5l19.8,19.8l24.4-12.8
					c7.8,4.7,16.4,8.4,25.6,10.6l8.3,26.3h28l8.3-26.3c9.1-2.3,17.7-5.9,25.6-10.6l24.4,12.8l19.8-19.8l-12.8-24.5
					c4.7-7.8,8.3-16.4,10.5-25.5L335.1,329.4z M218.8,376.9c-33.9,0-61.3-27.5-61.3-61.3c0-33.9,27.5-61.3,61.3-61.3
					c33.9,0,61.3,27.5,61.3,61.3C280.2,349.5,252.7,376.9,218.8,376.9z"/>
			</g>
		</g>
		<g>
			<g>
				<path fill="#C69C28" d="M332.8,141.3c0-6.1-1-12-2.8-17.7l12.1-13.7l-9.5-15.7l-17.8,4.4c-4.2-4.1-9-7.7-14.4-10.5l-1.2-18.3
					l-17.9-4.4L271.8,81c-6,0-12,1-17.6,2.7l-13.8-12.1l-15.7,9.5l4.4,17.7c-4.2,4.2-7.8,9-10.6,14.4l-18.2,1.2l-4.4,17.9l15.5,9.4
					c0,6.1,0.9,12.1,2.7,17.8l-12,13.6l9.5,15.7l17.5-4.3c4.3,4.2,9.2,7.9,14.6,10.7l1.2,18l17.9,4.4l9.3-15.4
					c6.2,0,12.2-1,17.9-2.8l13.6,11.9l15.7-9.5l-4.3-17.6c4.2-4.2,7.8-9.1,10.6-14.6l18.1-1.2l4.4-17.9L332.8,141.3z M311.2,151.2
					c-5.3,21.6-27,34.8-48.6,29.5c-21.6-5.3-34.8-27-29.5-48.6c5.3-21.6,27-34.8,48.6-29.5S316.4,129.6,311.2,151.2z"/>
			</g>
		</g>
		<g>
			<g>
				<path fill="#703D1A" d="M414.8,225.2c-0.5-4.7-1.7-9.3-3.5-13.7l8.5-11.9l-8.8-11.7l-13.8,4.9c-3.7-3-7.9-5.4-12.2-7.2
					l-2.4-14.4l-14.5-2l-6.2,13.1c-4.7,0.5-9.3,1.7-13.8,3.5l-11.8-8.4l-11.7,8.8l4.8,13.6c-3.1,3.8-5.5,8-7.3,12.4l-14.2,2.4
					l-2,14.5l13,6.2c0.5,4.8,1.7,9.5,3.6,14l-8.4,11.7l8.8,11.7l13.5-4.8c3.8,3.1,8,5.5,12.4,7.3l2.4,14.2l14.5,2l6.2-13
					c4.7-0.5,9.4-1.7,13.9-3.6l11.8,8.4l11.7-8.8l-4.9-13.7c3-3.8,5.5-7.9,7.2-12.3l14.3-2.4l2-14.5L414.8,225.2z M386.1,255.9
					c-14.1,10.6-34.2,7.8-44.8-6.3c-10.6-14.1-7.8-34.2,6.3-44.8c14.1-10.6,34.2-7.8,44.8,6.3C403,225.2,400.2,245.3,386.1,255.9z"
					/>
			</g>
		</g>
	</g>
</g>
</svg>
