<?xml version="1.0" encoding="utf-8"?>
<!-- Generator: Adobe Illustrator 16.0.0, SVG Export Plug-In . SVG Version: 6.00 Build 0)  -->
<!DOCTYPE svg PUBLIC "-//W3C//DTD SVG 1.1//EN" "http://www.w3.org/Graphics/SVG/1.1/DTD/svg11.dtd">
<svg version="1.1" id="Layer_1" xmlns="http://www.w3.org/2000/svg" xmlns:xlink="http://www.w3.org/1999/xlink" x="0px" y="0px"
	 width="512px" height="512px" viewBox="0 0 512 512" enable-background="new 0 0 512 512" xml:space="preserve">
<g>
	<g>
		<g>
			<path fill="#48A1AF" d="M256,7.9C119,7.9,7.9,119,7.9,256C7.9,393,119,504.1,256,504.1c137,0,248.1-111.1,248.1-248.1
				C504.1,119,393,7.9,256,7.9z"/>
		</g>
	</g>
	<g>
		<g>
			<g>
				<path fill="#DDDDDD" d="M386.3,351.8L210.5,176.7c0,0,12.2-36.2-6.9-55.3S155.5,106,155.5,106l-9.9,9.9l24.4,24.4l6.3,21.6
					L161,177.2l-24.3-6.1l-23.1-23.1l-7.2,7.2c0,0-5.3,27.4,15.4,48.1s52.6,6.3,52.6,6.3l177.2,177c5.9,5.9,20.9,6.3,31.5-4.3
					S392.5,358,386.3,351.8z"/>
			</g>
		</g>
		<g>
			<g>
				<g>
					<circle fill="#E8E8E8" cx="367.2" cy="367.4" r="12.3"/>
				</g>
			</g>
			<g>
				<g>
					<circle fill="#CECECE" cx="367.2" cy="367.4" r="6.3"/>
				</g>
			</g>
		</g>
		<g>
			<g>
				<path fill="#E8E8E8" d="M344.8,324.7L224.4,204.2c-5.6-5.6-14.8-5.6-20.4,0c-5.6,5.6-5.6,14.8,0,20.4L324.5,345
					c5.6,5.6,14.8,5.6,20.4,0C350.5,339.4,350.5,330.3,344.8,324.7z"/>
			</g>
		</g>
		<g>
			<g>
				<g>
					<path fill="#CCCCCC" d="M387.3,121.6L375,109.4c-3.2-3.2-6.6-5.2-8.5-3.2c-19,19-15.7,29-15.7,29c-0.2,0.2-0.3,0.4-0.5,0.6
						c-0.2,0.1-0.4,0.3-0.6,0.5L190.3,295.6c-1.5,1.5-1.5,3.8,0,5.3l5.5,5.5c1.5,1.5,3.8,1.5,5.3,0l159.5-159.5
						c0.2-0.2,0.3-0.4,0.5-0.6c0.2-0.1,0.4-0.3,0.6-0.5c0,0,10.6,2.6,29-15.7C392.5,128.1,390.5,124.9,387.3,121.6z"/>
				</g>
			</g>
			<g>
				<g>
					<path fill="#E2E2E2" d="M381.4,115.7l-6.4-6.4c-3.2-3.2-6.6-5.2-8.5-3.2c-19,19-15.7,29-15.7,29c-0.2,0.2-0.3,0.4-0.5,0.6
						c-0.2,0.1-0.4,0.3-0.6,0.5L190.3,295.6c-1.5,1.5-1.5,3.8,0,5.3l2.7,2.7C193,303.6,384.7,119,381.4,115.7z"/>
				</g>
			</g>
			<g>
				<g>
					<path fill="#BEE1E5" d="M226.6,289.6L207,270.1c-5.2-5.2-13.6-5.1-18.9,0.1l-79.3,79.3c-5.2,5.2-5.3,13.7-0.1,18.9l19.5,19.5
						c5.2,5.2,13.6,5.1,18.9-0.1l79.3-79.3C231.7,303.2,231.7,294.8,226.6,289.6z"/>
				</g>
			</g>
			<g>
				<g>
					<path fill="#97BFBF" d="M193.4,292.2l-4.2-4.2c-3.6-3.6-71.7,64.4-68,68l4.2,4.2C129,363.9,197.1,295.8,193.4,292.2z"/>
				</g>
			</g>
			<g>
				<g>
					<path fill="#A9D1D3" d="M193.4,292.2l-4.2-4.2l-68,68l4.2,4.2C129,363.9,197.1,295.8,193.4,292.2z"/>
				</g>
			</g>
			<g>
				<g>
					<path fill="#97BFBF" d="M208,306.8l-4.2-4.2c-3.6-3.6-71.7,64.4-68,68l4.2,4.2C143.6,378.4,211.6,310.4,208,306.8z"/>
				</g>
			</g>
			<g>
				<g>
					<path fill="#A9D1D3" d="M208.1,306.8l-4.2-4.2l-68,68l4.2,4.2C143.7,378.5,211.7,310.5,208.1,306.8z"/>
				</g>
			</g>
		</g>
	</g>
</g>
</svg>
