<?xml version="1.0" encoding="utf-8"?>
<!-- Generator: Adobe Illustrator 16.0.0, SVG Export Plug-In . SVG Version: 6.00 Build 0)  -->
<!DOCTYPE svg PUBLIC "-//W3C//DTD SVG 1.1//EN" "http://www.w3.org/Graphics/SVG/1.1/DTD/svg11.dtd">
<svg version="1.1" id="Layer_1" xmlns="http://www.w3.org/2000/svg" xmlns:xlink="http://www.w3.org/1999/xlink" x="0px" y="0px"
	 width="512px" height="512px" viewBox="0 0 512 512" enable-background="new 0 0 512 512" xml:space="preserve">
<g>
	<g>
		<path fill="#357180" d="M7.9,256C7.9,119,119,7.9,256,7.9S504.1,119,504.1,256c0,137-111.1,248.1-248.1,248.1S7.9,393,7.9,256z"/>
	</g>
	<g>
		<g>
			<g>
				<g>
					<path fill="#DFCC6B" d="M350.2,190.9c-29.3-3.2-35.7,6.7-62.5-2.8c-17.8-6.3-3.4-56.7-44.9-61.8c-64.4-8-110.1,25.4-126.1,96
						c-18.8,83.1,34,165.8,118,184.9c84,19,167.3-32.9,186.1-116C433.8,233.5,405.6,196.9,350.2,190.9z M220.6,207.3
						c-5.3,13-21.6,18.6-36.3,12.6c-14.7-6-22.2-21.5-16.9-34.5c5.3-13,21.6-18.6,36.3-12.6C218.4,178.9,225.9,194.3,220.6,207.3z"
						/>
				</g>
			</g>
			<g>
				<g>
					<g>
						<path fill="#EEDD7A" d="M346.8,186.4c-29.3-3.2-35.7,6.7-62.5-2.8c-17.8-6.3-3.4-56.7-44.9-61.8c-64.4-8-110.1,25.4-126.1,96
							c-18.8,83.1,34,165.8,118,184.8c84,19,167.3-32.9,186.1-116C430.5,229,402.2,192.4,346.8,186.4z M217.2,202.8
							c-5.3,13-21.6,18.6-36.3,12.6c-14.7-6-22.2-21.5-16.9-34.5c5.3-13,21.6-18.6,36.3-12.6C215,174.4,222.6,189.8,217.2,202.8z"/>
					</g>
				</g>
				<g>
					<g>
						<path fill="#DBC55E" d="M200.3,168.3c-14.7-6-30.9-0.4-36.3,12.6c-5.4,13,2.2,28.4,16.9,34.5c14.7,6,30.9,0.4,36.3-12.6
							C222.6,189.8,215,174.4,200.3,168.3z M212.1,200.7c-4.3,10.5-17.4,15-29.2,10.1c-11.8-4.9-17.9-17.3-13.6-27.8
							c4.3-10.5,17.4-15,29.2-10.1C210.3,177.8,216.4,190.2,212.1,200.7z"/>
					</g>
				</g>
			</g>
			<g>
				<g>
					<g>
						<path fill="#DBC55E" d="M203.7,172.8c-14.7-6.1-30.9-0.4-36.3,12.6c-5.3,13,2.2,28.4,16.9,34.5c14.7,6.1,30.9,0.4,36.3-12.6
							C225.9,194.3,218.4,178.9,203.7,172.8z M215.4,205.1c-4.3,10.5-17.4,15-29.2,10.1c-11.8-4.9-17.9-17.3-13.6-27.8
							c4.3-10.5,17.4-15,29.2-10.1C213.6,182.2,219.7,194.7,215.4,205.1z"/>
					</g>
				</g>
			</g>
			<g>
				<g>
					<path fill="#F1E089" d="M284.3,183.6c-17.8-6.3,2.3-51.6-44.9-61.8c-63.5-13.8-110.1,25.4-126.1,96
						c-16.1,71.1,20.2,141.9,83.6,172.8C207.7,395.8,311.1,193.1,284.3,183.6z M217.2,202.8c-5.3,13-21.6,18.6-36.3,12.6
						c-14.7-6-22.2-21.5-16.9-34.5c5.3-13,21.6-18.6,36.3-12.6C215,174.4,222.6,189.8,217.2,202.8z"/>
				</g>
			</g>
		</g>
		<g>
			<g>
				<g>
					<path fill="#DBC55E" d="M403,257c3.6,12.2-9.4,27.8-24.6,23.6c-13.4-3.7-27-9.7-25.8-22.4c2.2-22.8,10.7-23.3,24.6-23.7
						C391.1,234.2,399.2,244.3,403,257z"/>
				</g>
			</g>
		</g>
		<g>
			<g>
				<g>
					<path fill="#E84849" d="M398.8,253.7c4.7,9.7-4,24.6-17.4,23.2c-11.8-1.2-24-4.4-24.7-15.1c-1.3-19.4,5.7-21,17.3-23.2
						C385.7,236.3,393.9,243.6,398.8,253.7z"/>
				</g>
			</g>
		</g>
		<g>
			<g>
				<g>
					<path fill="#DBC55E" d="M378.6,322c0.5,12.7-15.9,24.7-29.7,16.9c-12.1-6.9-23.8-16-19.5-28c7.7-21.5,16.1-19.9,29.7-16.9
						C372.6,297,378,308.7,378.6,322z"/>
				</g>
			</g>
		</g>
		<g>
			<g>
				<g>
					<path fill="#E79E2D" d="M375.3,317.7c2.2,10.6-9.9,22.9-22.5,18.2c-11.1-4.1-22.1-10.1-20.2-20.7c3.5-19.1,10.7-18.9,22.5-18.2
						C366.9,297.7,373,306.7,375.3,317.7z"/>
				</g>
			</g>
		</g>
		<g>
			<g>
				<g>
					<path fill="#DBC55E" d="M314.2,370.6c-7.2,10.5-27.5,10.3-33.9-4.2c-5.6-12.8-9.5-27.1,1.1-34.1c19.1-12.6,24.8-6.4,33.9,4.2
						C324.4,347.1,321.7,359.7,314.2,370.6z"/>
				</g>
			</g>
		</g>
		<g>
			<g>
				<g>
					<path fill="#DAC425" d="M314.1,365.3c-4.6,9.8-21.6,12.4-28.9,1.1c-6.5-9.9-11.7-21.4-3.8-28.7c14.2-13.2,19.9-8.8,28.9-1.1
						C319.4,344.2,318.9,355.1,314.1,365.3z"/>
				</g>
			</g>
		</g>
		<g>
			<g>
				<g>
					<path fill="#DBC55E" d="M243,371.5c-9.2,8.7-29.1,4.2-32.2-11.3c-2.8-13.7-3.6-28.5,8.3-33.1c21.3-8.3,25.6-1,32.2,11.3
						C257.9,350.7,252.6,362.4,243,371.5z"/>
				</g>
			</g>
		</g>
		<g>
			<g>
				<g>
					<path fill="#6CC077" d="M244.1,366.3c-6.5,8.6-23.7,7.6-28.5-5c-4.2-11-6.9-23.4,2.4-28.9c16.7-9.9,21.3-4.4,28.5,5
						C253.6,346.8,250.8,357.3,244.1,366.3z"/>
				</g>
			</g>
		</g>
	</g>
	<g>
		<g>
			<path fill="#276D69" d="M274.1,208c26.2-21.8,27.9-8.8,35.7-1.1c7.6,7.6,20.1,9.3-1,35.7c-21,26.2-81.3,46.7-81.3,46.7
				S248.3,229.5,274.1,208z"/>
		</g>
		<g>
			<path fill="#355957" d="M309.8,206.9c7.6,7.6,20.1,9.3-1,35.7c-21,26.2-81.3,46.7-81.3,46.7L309.8,206.9z"/>
		</g>
		<g>
			<g>
				<g>
					<path fill="#E79E2D" d="M297.9,194.5c-3.4,3.4,18.9,26.7,22.8,22.8l130.1-110.5l2-1.7c0,0,0-0.1-0.1-0.1
						c-0.5,0.4-0.9,0.8-1.2,1.1L320.8,217.3c-2,2-8.5-2.9-14.2-8.7c0,0,94.4-94.4,126.4-126.4c-7.1-7.2-14.6-14-22.5-20.2l-2.1,2.4
						L297.9,194.5z"/>
				</g>
			</g>
			<g>
				<g>
					<path fill="#D68A28" d="M306.7,208.6c5.7,5.8,12.2,10.6,14.2,8.7l130.7-111.1c0.3-0.3,0.7-0.7,1.2-1.1
						c-6.1-8-12.7-15.6-19.8-22.7C401,114.2,306.7,208.6,306.7,208.6z"/>
				</g>
			</g>
		</g>
		<g>
			<path fill="#CDCCCB" d="M320.7,217.4L426,128.7l-39.5-39.5l-88.7,105.4C294.6,197.8,317,221.1,320.7,217.4z"/>
		</g>
		<g>
			<path fill="#B1B1B2" d="M320.7,217.4L426,128.7L406.3,109c0,0-100.4,98.9-99.6,99.6C312.4,214.3,318.8,219.3,320.7,217.4z"/>
		</g>
		<g>
			<path fill="#BFBEBE" d="M341.5,197.4l76.5-61.9l-36.9-39.7l-64.2,76.8C314.4,175,338.7,200.2,341.5,197.4z"/>
		</g>
		<g>
			<path fill="#AAAAAA" d="M320.7,217.4l98.8-83.2l-19.3-19.3c0,0-94.1,93.1-93.5,93.6C312.4,214.3,318.8,219.3,320.7,217.4z"/>
		</g>
	</g>
</g>
</svg>
