<?xml version="1.0" encoding="utf-8"?>
<!-- Generator: Adobe Illustrator 16.0.0, SVG Export Plug-In . SVG Version: 6.00 Build 0)  -->
<!DOCTYPE svg PUBLIC "-//W3C//DTD SVG 1.1//EN" "http://www.w3.org/Graphics/SVG/1.1/DTD/svg11.dtd">
<svg version="1.1" id="Layer_1" xmlns="http://www.w3.org/2000/svg" xmlns:xlink="http://www.w3.org/1999/xlink" x="0px" y="0px"
	 width="512px" height="512px" viewBox="0 0 512 512" enable-background="new 0 0 512 512" xml:space="preserve">
<g>
	<g>
		<path fill="#6EC2CB" d="M7.9,256C7.9,119,119,7.9,256,7.9S504.1,119,504.1,256S393,504.1,256,504.1S7.9,393,7.9,256z"/>
	</g>
	<g>
		<g>
			<g>
				<g>
					<path fill="#EEDD7A" d="M452.1,243.8c0,99.5-81.5,180.2-182.1,180.2c-100.6,0-182.1-80.7-182.1-180.2
						c0-84.6,43.4-134.4,118.9-141.9c48.6-4.8,45.1,56.3,67.1,58.9c33,3.9,37.7-9,71.9-12.9C410.5,140.4,452.1,174.8,452.1,243.8z"
						/>
				</g>
			</g>
			<g>
				<g>
					<path fill="#F1E089" d="M227.8,419.2C147.5,400.3,87.9,329,87.9,243.8c0-84.6,43.1-141.2,118.9-141.9
						c56.3-0.5,45.1,56.3,67.1,58.9C306.8,164.7,241.3,422.3,227.8,419.2z"/>
				</g>
			</g>
			<g>
				<g>
					<path fill="#DBC55E" d="M202.3,200c-2.7,16.2-19.8,26.8-38.1,23.7c-18.3-3.1-30.9-18.7-28.1-34.9c2.7-16.2,19.8-26.8,38.1-23.7
						C192.5,168.2,205.1,183.8,202.3,200z"/>
				</g>
			</g>
			<g>
				<g>
					<path fill="#F4F5F5" d="M195.9,198.9c-2.2,13-16,21.6-30.7,19.1c-14.7-2.5-24.9-15.1-22.7-28.1c2.2-13,16-21.6,30.7-19.1
						C188,173.2,198.1,185.8,195.9,198.9z"/>
				</g>
			</g>
		</g>
		<g>
			<g>
				<g>
					<path fill="#DBC55E" d="M428,213.7c7.3,12.9-3.5,34.1-22,33.3c-16.3-0.7-33.3-4.1-35.2-18.8c-3.4-26.5,6.2-29.3,22-33.3
						C408.6,190.9,420.4,200.3,428,213.7z"/>
				</g>
			</g>
		</g>
		<g>
			<g>
				<g>
					<path fill="#E84849" d="M422.4,211.1c7.9,9.8,1.8,29.1-13.8,30.9c-13.7,1.6-28.4,1.2-32-10.9c-6.5-21.7,1.1-25.4,13.8-30.9
						C403,194.7,414.2,200.9,422.4,211.1z"/>
				</g>
			</g>
		</g>
		<g>
			<g>
				<g>
					<path fill="#DBC55E" d="M417,294.1c3.9,14.3-11.8,32.2-29.5,26.9c-15.6-4.7-31.3-12.1-29.5-26.9c3.2-26.5,13.2-26.9,29.5-26.9
						S412.9,279.2,417,294.1z"/>
				</g>
			</g>
		</g>
		<g>
			<g>
				<g>
					<path fill="#E79E2D" d="M412.1,290.1c5.2,11.5-5.4,28.6-21,26.6c-13.7-1.8-27.9-5.8-28.4-18.4c-1-22.7,7.3-24.3,21-26.6
						C397.4,269.5,406.7,278.2,412.1,290.1z"/>
				</g>
			</g>
		</g>
		<g>
			<g>
				<g>
					<path fill="#DBC55E" d="M356.2,366.2c-5.5,13.8-28.7,18.8-39.7,3.9c-9.7-13.1-17.8-28.4-7.6-39.2c18.5-19.3,26.6-13.7,39.7-3.9
						C361.7,336.8,361.9,351.8,356.2,366.2z"/>
				</g>
			</g>
		</g>
		<g>
			<g>
				<g>
					<path fill="#DAC425" d="M354.7,360.1c-2.7,12.3-21.4,19.7-32.7,8.8c-9.9-9.6-18.8-21.3-11.7-31.7c12.8-18.7,20.4-15.1,32.7-8.8
						C355.2,334.7,357.5,347.3,354.7,360.1z"/>
				</g>
			</g>
		</g>
		<g>
			<g>
				<g>
					<path fill="#DBC55E" d="M275.3,385.6c-8.3,12.3-32,12.3-39.6-4.5c-6.7-14.8-11.4-31.6,0.9-39.9c22.1-15,28.9-7.7,39.6,4.5
						C286.9,358,283.9,372.8,275.3,385.6z"/>
				</g>
			</g>
		</g>
		<g>
			<g>
				<g>
					<path fill="#6CC077" d="M275.1,379.4c-5.2,11.5-25.1,14.7-33.8,1.7c-7.7-11.5-13.9-24.8-4.8-33.5c16.4-15.6,23.1-10.5,33.8-1.7
						C281,354.6,280.5,367.4,275.1,379.4z"/>
				</g>
			</g>
		</g>
	</g>
</g>
</svg>
