<?xml version="1.0" encoding="utf-8"?>
<!-- Generator: Adobe Illustrator 16.0.0, SVG Export Plug-In . SVG Version: 6.00 Build 0)  -->
<!DOCTYPE svg PUBLIC "-//W3C//DTD SVG 1.1//EN" "http://www.w3.org/Graphics/SVG/1.1/DTD/svg11.dtd">
<svg version="1.1" id="Layer_1" xmlns="http://www.w3.org/2000/svg" xmlns:xlink="http://www.w3.org/1999/xlink" x="0px" y="0px"
	 width="512px" height="512px" viewBox="0 0 512 512" enable-background="new 0 0 512 512" xml:space="preserve">
<g>
	<g>
		<g>
			<g>
				<g>
					<path fill="#D62127" d="M7.9,256C7.9,119,119,7.9,256,7.9C393,7.9,504.1,119,504.1,256c0,137-111.1,248.1-248.1,248.1
						C119,504.1,7.9,393,7.9,256z"/>
				</g>
			</g>
		</g>
	</g>
	<g>
		<g>
			<path fill="#7FCDCC" d="M357.5,401.7c0,24.8-18.3,44.9-40.9,44.9H204.9c-22.6,0-40.9-20.1-40.9-44.9c0,0,9.4-97.3,17-121.7
				c7.7-24.3,18.3-44.9,40.9-44.9h81c22.6,0,34.9,15,40.9,44.9C349.8,310,357.5,401.7,357.5,401.7z"/>
		</g>
		<g>
			<g>
				<polygon fill="#FFFFFF" points="235.1,409.6 254.7,254.6 260.1,247.7 263,247.5 270,254.6 289.6,409.6 261.3,433.5 				"/>
			</g>
			<g>
				<g>
					<polygon fill="#8DD3D5" points="249.3,297.2 272.9,277.9 271.9,269.7 250.6,287.2 					"/>
				</g>
				<g>
					<polygon fill="#8DD3D5" points="245.7,325.7 275.8,301.1 274.8,292.9 247,315.6 					"/>
				</g>
				<g>
					<polygon fill="#8DD3D5" points="242.1,354.2 278.8,324.2 277.7,316 243.4,344.1 					"/>
				</g>
				<g>
					<polygon fill="#8DD3D5" points="238.5,382.7 281.7,347.3 280.7,339.2 239.8,372.6 					"/>
				</g>
				<g>
					<polygon fill="#8DD3D5" points="235.1,409.6 236.2,410.1 284.6,370.5 283.6,362.3 236.2,401.1 					"/>
				</g>
				<g>
					<polygon fill="#8DD3D5" points="250.8,423.9 287.6,393.6 286.5,385.5 245.4,419 					"/>
				</g>
			</g>
			<g>
				<path fill="#6FC5BC" d="M274.7,250.8c0,7.1-5.7,12.9-12.7,12.9c-7,0-12.7-5.8-12.7-12.9c0-7.1,5.7-12.8,12.7-12.8
					C269.1,237.9,274.7,243.7,274.7,250.8z"/>
			</g>
		</g>
		<g>
			<g>
				<path fill="#E9C29C" d="M342.2,141.8c0,45.5-36.9,82.4-82.4,82.4c-45.5,0-82.4-36.9-82.4-82.4c0-45.5,36.9-82.4,82.4-82.4
					C305.3,59.4,342.2,96.3,342.2,141.8z"/>
			</g>
			<g>
				<path fill="#A46434" d="M342.2,141.8L286,91.2c0,0-12,19.8-43.9,34.3c-30.8,13.9-64.8,16.3-64.8,16.3
					c0-45.5,36.9-82.4,82.4-82.4C305.3,59.4,342.2,96.3,342.2,141.8z"/>
			</g>
			<g>
				<path fill="#343433" d="M246.3,154c0,6.6-5.1,11.9-11.3,11.9c-6.2,0-11.3-5.3-11.3-11.9c0-6.6,5.1-11.9,11.3-11.9
					C241.3,142.1,246.3,147.4,246.3,154z"/>
			</g>
			<g>
				<path fill="#343433" d="M295.3,154c0,6.6-5.1,11.9-11.3,11.9c-6.2,0-11.3-5.3-11.3-11.9c0-6.6,5.1-11.9,11.3-11.9
					C290.2,142.1,295.3,147.4,295.3,154z"/>
			</g>
			<g>
				<path fill="#FFFFFF" d="M292,149.5c0,2.6-2,4.8-4.5,4.8c-2.5,0-4.5-2.1-4.5-4.8c0-2.6,2-4.8,4.5-4.8
					C290,144.7,292,146.9,292,149.5z"/>
			</g>
			<g>
				<path fill="#FFFFFF" d="M243,149.5c0,2.6-2,4.8-4.5,4.8c-2.5,0-4.5-2.1-4.5-4.8c0-2.6,2-4.8,4.5-4.8
					C240.9,144.7,243,146.9,243,149.5z"/>
			</g>
		</g>
	</g>
</g>
</svg>
