<?xml version="1.0" encoding="utf-8"?>
<!-- Generator: Adobe Illustrator 16.0.0, SVG Export Plug-In . SVG Version: 6.00 Build 0)  -->
<!DOCTYPE svg PUBLIC "-//W3C//DTD SVG 1.1//EN" "http://www.w3.org/Graphics/SVG/1.1/DTD/svg11.dtd">
<svg version="1.1" id="Layer_1" xmlns="http://www.w3.org/2000/svg" xmlns:xlink="http://www.w3.org/1999/xlink" x="0px" y="0px"
	 width="512px" height="512px" viewBox="0 0 512 512" enable-background="new 0 0 512 512" xml:space="preserve">
<g>
	<g>
		<g>
			<g>
				<g>
					<path fill="#EDC92C" d="M7.9,256C7.9,119,119,7.9,256,7.9C393,7.9,504.1,119,504.1,256c0,137-111.1,248.1-248.1,248.1
						C119,504.1,7.9,393,7.9,256z"/>
				</g>
			</g>
		</g>
	</g>
	<g>
		<g>
			<g>
				<path fill="#7FCDCC" d="M182.2,334.9c0,14.2-10.5,25.8-23.5,25.8h-64c-13,0-23.5-11.5-23.5-25.8c0,0,5.4-55.8,9.8-69.8
					s10.5-25.8,23.5-25.8h46.4c13,0,20,8.6,23.5,25.8C177.8,282.3,182.2,334.9,182.2,334.9z"/>
			</g>
			<g>
				<g>
					<polygon fill="#FFFFFF" points="112.1,339.4 123.3,250.5 126.4,246.6 128,246.5 132,250.5 143.3,339.4 127.1,353.2 					"/>
				</g>
				<g>
					<g>
						<polygon fill="#8DD3D5" points="120.2,275 133.7,263.9 133.1,259.2 120.9,269.2 						"/>
					</g>
					<g>
						<polygon fill="#8DD3D5" points="118.1,291.3 135.4,277.2 134.8,272.5 118.9,285.6 						"/>
					</g>
					<g>
						<polygon fill="#8DD3D5" points="116.1,307.7 137.1,290.5 136.5,285.8 116.8,301.9 						"/>
					</g>
					<g>
						<polygon fill="#8DD3D5" points="114,324 138.8,303.8 138.2,299.1 114.7,318.2 						"/>
					</g>
					<g>
						<polygon fill="#8DD3D5" points="112.1,339.4 112.6,339.8 140.4,317 139.8,312.3 112.7,334.6 						"/>
					</g>
					<g>
						<polygon fill="#8DD3D5" points="121,347.6 142.1,330.3 141.5,325.6 117.9,344.9 						"/>
					</g>
				</g>
				<g>
					<path fill="#6FC5BC" d="M134.8,248.4c0,4.1-3.3,7.4-7.3,7.4c-4,0-7.3-3.3-7.3-7.4c0-4.1,3.3-7.4,7.3-7.4
						C131.5,241,134.8,244.3,134.8,248.4z"/>
				</g>
			</g>
			<g>
				<g>
					<path fill="#E9C29C" d="M173.5,185.8c0,26.1-21.2,47.3-47.3,47.3c-26.1,0-47.3-21.2-47.3-47.3c0-26.1,21.2-47.3,47.3-47.3
						C152.3,138.6,173.5,159.7,173.5,185.8z"/>
				</g>
				<g>
					<path fill="#904F22" d="M173.5,185.8l-32.2-29c0,0-6.9,11.4-25.2,19.6c-17.7,8-37.1,9.4-37.1,9.4c0-26.1,21.2-47.3,47.3-47.3
						C152.3,138.6,173.5,159.7,173.5,185.8z"/>
				</g>
				<g>
					<path fill="#343433" d="M118.5,192.9c0,3.8-2.9,6.8-6.5,6.8c-3.6,0-6.5-3.1-6.5-6.8c0-3.8,2.9-6.8,6.5-6.8
						C115.6,186,118.5,189.1,118.5,192.9z"/>
				</g>
				<g>
					<path fill="#343433" d="M146.5,192.9c0,3.8-2.9,6.8-6.5,6.8c-3.6,0-6.5-3.1-6.5-6.8c0-3.8,2.9-6.8,6.5-6.8
						C143.6,186,146.5,189.1,146.5,192.9z"/>
				</g>
				<g>
					<path fill="#FFFFFF" d="M144.7,190.3c0,1.5-1.2,2.7-2.6,2.7c-1.4,0-2.6-1.2-2.6-2.7c0-1.5,1.2-2.7,2.6-2.7
						C143.5,187.5,144.7,188.8,144.7,190.3z"/>
				</g>
				<g>
					<path fill="#FFFFFF" d="M116.5,190.3c0,1.5-1.2,2.7-2.6,2.7s-2.6-1.2-2.6-2.7c0-1.5,1.2-2.7,2.6-2.7S116.5,188.8,116.5,190.3z"
						/>
				</g>
			</g>
		</g>
		<g>
			<g>
				<path fill="#7FCDCC" d="M333.8,376.4c0,21.2-15.6,38.3-34.9,38.3h-95.2c-19.3,0-34.9-17.2-34.9-38.3c0,0,8-83,14.5-103.7
					c6.5-20.8,15.6-38.3,34.9-38.3h69c19.3,0,29.8,12.8,34.9,38.3C327.2,298.2,333.8,376.4,333.8,376.4z"/>
			</g>
			<g>
				<g>
					<polygon fill="#FFFFFF" points="229.5,383.1 246.2,251 250.7,245.1 253.2,245 259.1,251 275.9,383.1 251.8,403.6 					"/>
				</g>
				<g>
					<g>
						<polygon fill="#8DD3D5" points="241.6,287.4 261.7,270.9 260.8,263.9 242.6,278.8 						"/>
					</g>
					<g>
						<polygon fill="#8DD3D5" points="238.5,311.6 264.2,290.6 263.3,283.7 239.6,303 						"/>
					</g>
					<g>
						<polygon fill="#8DD3D5" points="235.4,335.9 266.7,310.4 265.8,303.4 236.5,327.3 						"/>
					</g>
					<g>
						<polygon fill="#8DD3D5" points="232.3,360.2 269.2,330.1 268.3,323.1 233.4,351.6 						"/>
					</g>
					<g>
						<polygon fill="#8DD3D5" points="229.5,383.1 230.3,383.6 271.6,349.8 270.8,342.9 230.4,375.9 						"/>
					</g>
					<g>
						<polygon fill="#8DD3D5" points="242.8,395.4 274.1,369.6 273.3,362.6 238.2,391.2 						"/>
					</g>
				</g>
				<g>
					<path fill="#6FC5BC" d="M263.2,247.7c0,6.1-4.9,11-10.8,11c-6,0-10.8-4.9-10.8-11c0-6,4.8-11,10.8-11
						C258.4,236.8,263.2,241.7,263.2,247.7z"/>
				</g>
			</g>
			<g>
				<g>
					<path fill="#E9C29C" d="M320.7,154.8c0,38.8-31.5,70.3-70.3,70.3c-38.8,0-70.3-31.5-70.3-70.3c0-38.8,31.5-70.3,70.3-70.3
						C289.3,84.5,320.7,116,320.7,154.8z"/>
				</g>
				<g>
					<path fill="#904F22" d="M320.7,154.8l-47.9-43.1c0,0-10.2,16.9-37.4,29.2c-26.2,11.9-55.2,13.9-55.2,13.9
						c0-38.8,31.5-70.3,70.3-70.3C289.3,84.5,320.7,116,320.7,154.8z"/>
				</g>
				<g>
					<path fill="#343433" d="M239,165.3c0,5.6-4.3,10.2-9.6,10.2c-5.3,0-9.6-4.6-9.6-10.2c0-5.6,4.3-10.2,9.6-10.2
						C234.7,155.1,239,159.6,239,165.3z"/>
				</g>
				<g>
					<path fill="#343433" d="M280.7,165.3c0,5.6-4.3,10.2-9.6,10.2c-5.3,0-9.6-4.6-9.6-10.2c0-5.6,4.3-10.2,9.6-10.2
						C276.4,155.1,280.7,159.6,280.7,165.3z"/>
				</g>
				<g>
					<path fill="#FFFFFF" d="M278,161.4c0,2.2-1.7,4.1-3.9,4.1c-2.1,0-3.8-1.8-3.8-4.1c0-2.2,1.7-4.1,3.8-4.1
						C276.2,157.3,278,159.2,278,161.4z"/>
				</g>
				<g>
					<path fill="#FFFFFF" d="M236.1,161.4c0,2.2-1.7,4.1-3.9,4.1c-2.1,0-3.8-1.8-3.8-4.1c0-2.2,1.7-4.1,3.8-4.1
						C234.4,157.3,236.1,159.2,236.1,161.4z"/>
				</g>
			</g>
		</g>
		<g>
			<g>
				<path fill="#7FCDCC" d="M432.8,334.9c0,14.2-10.5,25.8-23.5,25.8h-64c-13,0-23.5-11.5-23.5-25.8c0,0,5.4-55.8,9.8-69.8
					s10.5-25.8,23.5-25.8h46.4c13,0,20,8.6,23.5,25.8C428.4,282.3,432.8,334.9,432.8,334.9z"/>
			</g>
			<g>
				<g>
					<polygon fill="#FFFFFF" points="362.6,339.4 373.9,250.5 376.9,246.6 378.6,246.5 382.6,250.5 393.8,339.4 377.6,353.2 					
						"/>
				</g>
				<g>
					<g>
						<polygon fill="#8DD3D5" points="370.8,275 384.3,263.9 383.7,259.2 371.5,269.2 						"/>
					</g>
					<g>
						<polygon fill="#8DD3D5" points="368.7,291.3 386,277.2 385.4,272.5 369.4,285.6 						"/>
					</g>
					<g>
						<polygon fill="#8DD3D5" points="366.6,307.7 387.6,290.5 387.1,285.8 367.4,301.9 						"/>
					</g>
					<g>
						<polygon fill="#8DD3D5" points="364.6,324 389.3,303.8 388.7,299.1 365.3,318.2 						"/>
					</g>
					<g>
						<polygon fill="#8DD3D5" points="362.6,339.4 363.2,339.8 391,317 390.4,312.3 363.2,334.6 						"/>
					</g>
					<g>
						<polygon fill="#8DD3D5" points="371.6,347.6 392.7,330.3 392.1,325.6 368.5,344.9 						"/>
					</g>
				</g>
				<g>
					<path fill="#6FC5BC" d="M385.3,248.4c0,4.1-3.3,7.4-7.3,7.4c-4,0-7.3-3.3-7.3-7.4c0-4.1,3.3-7.4,7.3-7.4
						C382.1,241,385.3,244.3,385.3,248.4z"/>
				</g>
			</g>
			<g>
				<g>
					<path fill="#E9C29C" d="M424,185.8c0,26.1-21.2,47.3-47.3,47.3c-26.1,0-47.3-21.2-47.3-47.3c0-26.1,21.2-47.3,47.3-47.3
						C402.9,138.6,424,159.7,424,185.8z"/>
				</g>
				<g>
					<path fill="#904F22" d="M424,185.8l-32.2-29c0,0-6.9,11.4-25.2,19.6c-17.7,8-37.2,9.4-37.2,9.4c0-26.1,21.2-47.3,47.3-47.3
						C402.9,138.6,424,159.7,424,185.8z"/>
				</g>
				<g>
					<path fill="#343433" d="M369,192.9c0,3.8-2.9,6.8-6.5,6.8c-3.6,0-6.5-3.1-6.5-6.8c0-3.8,2.9-6.8,6.5-6.8
						C366.1,186,369,189.1,369,192.9z"/>
				</g>
				<g>
					<path fill="#343433" d="M397.1,192.9c0,3.8-2.9,6.8-6.5,6.8c-3.6,0-6.5-3.1-6.5-6.8c0-3.8,2.9-6.8,6.5-6.8
						C394.2,186,397.1,189.1,397.1,192.9z"/>
				</g>
				<g>
					<path fill="#FFFFFF" d="M395.3,190.3c0,1.5-1.2,2.7-2.6,2.7c-1.4,0-2.6-1.2-2.6-2.7c0-1.5,1.2-2.7,2.6-2.7
						C394.1,187.5,395.3,188.8,395.3,190.3z"/>
				</g>
				<g>
					<path fill="#FFFFFF" d="M367.1,190.3c0,1.5-1.2,2.7-2.6,2.7c-1.4,0-2.6-1.2-2.6-2.7c0-1.5,1.2-2.7,2.6-2.7
						C366,187.5,367.1,188.8,367.1,190.3z"/>
				</g>
			</g>
		</g>
	</g>
</g>
</svg>
